TITLE ""
FILE "DISC1Track38.mp3" MP3
  TRACK 01 AUDIO
    TITLE "DISC1Track38_01"
    INDEX 01 00:00:00
  TRACK 02 AUDIO
    TITLE "DISC1Track38_02"
    INDEX 01 00:04:20
  TRACK 03 AUDIO
    TITLE "DISC1Track38_03"
    INDEX 01 00:04:41
  TRACK 04 AUDIO
    TITLE "DISC1Track38_04"
    INDEX 01 00:07:32
  TRACK 05 AUDIO
    TITLE "DISC1Track38_05"
    INDEX 01 00:10:40
  TRACK 06 AUDIO
    TITLE "DISC1Track38_06"
    INDEX 01 00:13:44
  TRACK 07 AUDIO
    TITLE "DISC1Track38_07"
    INDEX 01 00:13:66
  TRACK 08 AUDIO
    TITLE "DISC1Track38_08"
    INDEX 01 00:17:38
  TRACK 09 AUDIO
    TITLE "DISC1Track38_09"
    INDEX 01 00:20:27
  TRACK 10 AUDIO
    TITLE "DISC1Track38_10"
    INDEX 01 00:23:15
  TRACK 11 AUDIO
    TITLE "DISC1Track38_11"
    INDEX 01 00:23:39
  TRACK 12 AUDIO
    TITLE "DISC1Track38_12"
    INDEX 01 00:25:10
  TRACK 13 AUDIO
    TITLE "DISC1Track38_13"
    INDEX 01 00:26:74
  TRACK 14 AUDIO
    TITLE "DISC1Track38_14"
    INDEX 01 00:28:58
  TRACK 15 AUDIO
    TITLE "DISC1Track38_15"
    INDEX 01 00:29:06
  TRACK 16 AUDIO
    TITLE "DISC1Track38_16"
    INDEX 01 00:32:75
  TRACK 17 AUDIO
    TITLE "DISC1Track38_17"
    INDEX 01 00:36:28
  TRACK 18 AUDIO
    TITLE "DISC1Track38_18"
    INDEX 01 00:39:48
  TRACK 19 AUDIO
    TITLE "DISC1Track38_19"
    INDEX 01 00:39:71
  TRACK 20 AUDIO
    TITLE "DISC1Track38_20"
    INDEX 01 00:43:16
  TRACK 21 AUDIO
    TITLE "DISC1Track38_21"
    INDEX 01 00:46:06
  TRACK 22 AUDIO
    TITLE "DISC1Track38_22"
    INDEX 01 00:48:66
  TRACK 23 AUDIO
    TITLE "DISC1Track38_23"
    INDEX 01 00:49:15
  TRACK 24 AUDIO
    TITLE "DISC1Track38_24"
    INDEX 01 00:52:31
  TRACK 25 AUDIO
    TITLE "DISC1Track38_25"
    INDEX 01 00:55:17
  TRACK 26 AUDIO
    TITLE "DISC1Track38_26"
    INDEX 01 00:57:75
  TRACK 27 AUDIO
    TITLE "DISC1Track38_27"
    INDEX 01 00:58:21
  TRACK 28 AUDIO
    TITLE "DISC1Track38_28"
    INDEX 01 01:01:28
  TRACK 29 AUDIO
    TITLE "DISC1Track38_29"
    INDEX 01 01:04:28
  TRACK 30 AUDIO
    TITLE "DISC1Track38_30"
    INDEX 01 01:07:20
  TRACK 31 AUDIO
    TITLE "DISC1Track38_31"
    INDEX 01 01:07:44
  TRACK 32 AUDIO
    TITLE "DISC1Track38_32"
    INDEX 01 01:11:03
  TRACK 33 AUDIO
    TITLE "DISC1Track38_33"
    INDEX 01 01:13:64
  TRACK 34 AUDIO
    TITLE "DISC1Track38_34"
    INDEX 01 01:16:55
  TRACK 35 AUDIO
    TITLE "DISC1Track38_35"
    INDEX 01 01:17:05
  TRACK 36 AUDIO
    TITLE "DISC1Track38_36"
    INDEX 01 01:18:50
  TRACK 37 AUDIO
    TITLE "DISC1Track38_37"
    INDEX 01 01:20:49
  TRACK 38 AUDIO
    TITLE "DISC1Track38_38"
    INDEX 01 01:22:36
  TRACK 39 AUDIO
    TITLE "DISC1Track38_39"
    INDEX 01 01:22:59
  TRACK 40 AUDIO
    TITLE "DISC1Track38_40"
    INDEX 01 01:25:40
  TRACK 41 AUDIO
    TITLE "DISC1Track38_41"
    INDEX 01 01:28:21
  TRACK 42 AUDIO
    TITLE "DISC1Track38_42"
    INDEX 01 01:30:70
  TRACK 43 AUDIO
    TITLE "DISC1Track38_43"
    INDEX 01 01:31:19
  TRACK 44 AUDIO
    TITLE "DISC1Track38_44"
    INDEX 01 01:34:74
  TRACK 45 AUDIO
    TITLE "DISC1Track38_45"
    INDEX 01 01:38:33
  TRACK 46 AUDIO
    TITLE "DISC1Track38_46"
    INDEX 01 01:41:58
  TRACK 47 AUDIO
    TITLE "DISC1Track38_47"
    INDEX 01 01:42:07
  TRACK 48 AUDIO
    TITLE "DISC1Track38_48"
    INDEX 01 01:46:18
  TRACK 49 AUDIO
    TITLE "DISC1Track38_49"
    INDEX 01 01:49:40
  TRACK 50 AUDIO
    TITLE "DISC1Track38_50"
    INDEX 01 01:52:58
